<svg width="221" height="35" viewBox="0 0 221 35" fill="none" xmlns="http://www.w3.org/2000/svg">
<g id="Group 1000001832">
<rect id="Social Media Icon" width="32.55" height="35" rx="8" fill="#E7E6F2"/>
<path id="Facebook" d="M17.5982 26.25V18.2674H20.2154L20.6073 15.1565H17.5981V13.1702C17.5981 12.2695 17.8424 11.6558 19.1041 11.6558L20.7132 11.655V8.87257C20.4349 8.83473 19.4796 8.75 18.3684 8.75C16.0483 8.75 14.4599 10.1998 14.4599 12.8622V15.1565H11.8359V18.2674H14.4599V26.2499H17.5982V26.25Z" fill="#17224D"/>
<rect id="Social Media Icon_2" x="47.0167" width="32.55" height="35" rx="8" fill="#E7E6F2"/>
<path id="Twitter" d="M66.0286 10.4042V10.401H66.7918L67.0706 10.4609C67.2565 10.4998 67.4252 10.5507 67.5769 10.6137C67.7285 10.6768 67.8753 10.7503 68.0171 10.8344C68.159 10.9184 68.2877 11.004 68.4031 11.0912C68.5176 11.1774 68.6203 11.2688 68.7113 11.3654C68.8013 11.4631 68.9417 11.4883 69.1325 11.441C69.3233 11.3938 69.5287 11.3281 69.7488 11.2441C69.969 11.16 70.1867 11.0655 70.4019 10.9604C70.6171 10.8554 70.7483 10.7887 70.7952 10.7603C70.8412 10.7309 70.8657 10.7151 70.8686 10.713L70.8715 10.7083L70.8862 10.7004L70.9009 10.6925L70.9155 10.6846L70.9302 10.6768L70.9331 10.672L70.9375 10.6689L70.942 10.6657L70.9449 10.661L70.9596 10.6563L70.9742 10.6531L70.9713 10.6768L70.9669 10.7004L70.9596 10.724L70.9522 10.7477L70.9449 10.7634L70.9375 10.7792L70.9302 10.8028C70.9253 10.8186 70.9204 10.8396 70.9155 10.8659C70.9106 10.8921 70.8642 10.9972 70.7761 11.181C70.6881 11.3649 70.578 11.5513 70.4459 11.7404C70.3138 11.9295 70.1955 12.0724 70.0908 12.1691C69.9851 12.2668 69.9152 12.335 69.8809 12.3739C69.8467 12.4138 69.8051 12.4506 69.7562 12.4842L69.6828 12.5362L69.6681 12.5441L69.6535 12.552L69.6505 12.5567L69.6461 12.5599L69.6417 12.563L69.6388 12.5677L69.6241 12.5756L69.6094 12.5835L69.6065 12.5882L69.6021 12.5914L69.5977 12.5945L69.5948 12.5993L69.5918 12.604L69.5874 12.6071L69.583 12.6103L69.5801 12.615H69.6535L70.0644 12.5205C70.3383 12.4574 70.6 12.3813 70.8495 12.292L71.2457 12.1502L71.2898 12.1344L71.3118 12.1265L71.3264 12.1186L71.3411 12.1108L71.3558 12.1029L71.3705 12.095L71.3998 12.0903L71.4292 12.0871V12.1186L71.4218 12.1218L71.4145 12.1265L71.4116 12.1312L71.4072 12.1344L71.4028 12.1376L71.3998 12.1423L71.3969 12.147L71.3925 12.1502L71.3881 12.1533L71.3851 12.158L71.3822 12.1628L71.3778 12.1659L71.3705 12.1817L71.3631 12.1974L71.3587 12.2006C71.3568 12.2037 71.2947 12.293 71.1724 12.4685C71.0501 12.645 70.984 12.7343 70.9742 12.7364C70.9645 12.7395 70.9508 12.7553 70.9331 12.7836C70.9165 12.813 70.8128 12.9302 70.622 13.135C70.4312 13.3399 70.2444 13.5222 70.0614 13.6819C69.8775 13.8426 69.7846 14.0401 69.7826 14.2744C69.7797 14.5076 69.7684 14.7713 69.7488 15.0654C69.7293 15.3596 69.6926 15.6774 69.6388 16.0188C69.585 16.3602 69.5018 16.7463 69.3893 17.177C69.2768 17.6077 69.1398 18.028 68.9784 18.4377C68.817 18.8474 68.6482 19.2151 68.4721 19.5407C68.296 19.8664 68.1346 20.1422 67.9878 20.368C67.841 20.5939 67.6919 20.8066 67.5402 21.0063C67.3886 21.2059 67.1968 21.4307 66.9649 21.6807C66.7321 21.9297 66.6049 22.0663 66.5834 22.0904C66.5609 22.1135 66.465 22.1997 66.2957 22.3488C66.1275 22.4991 65.9465 22.6493 65.7527 22.7995C65.56 22.9487 65.3829 23.0732 65.2215 23.173C65.0601 23.2728 64.8654 23.3868 64.6374 23.515C64.4104 23.6442 64.1649 23.7639 63.9007 23.8742C63.6365 23.9845 63.3577 24.087 63.0642 24.1815C62.7707 24.2761 62.487 24.3496 62.213 24.4021C61.9391 24.4547 61.6285 24.4993 61.2811 24.5361L60.7602 24.5912V24.5991H59.8063V24.5912L59.6815 24.5834C59.5984 24.5781 59.5299 24.5728 59.4761 24.5676C59.4223 24.5624 59.2193 24.5335 58.867 24.4809C58.5148 24.4284 58.2385 24.3759 58.0379 24.3233C57.8373 24.2708 57.5389 24.171 57.1427 24.0239C56.7465 23.8769 56.4075 23.7282 56.1257 23.578C55.8449 23.4288 55.6688 23.3343 55.5974 23.2943C55.5269 23.2555 55.4477 23.2072 55.3596 23.1494L55.2276 23.0627L55.2246 23.058L55.2202 23.0548L55.2158 23.0517L55.2129 23.0469L55.1982 23.0391L55.1835 23.0312L55.1806 23.0265L55.1762 23.0233L55.1718 23.0201L55.1689 23.0154L55.1659 23.0107L55.1615 23.0075H55.1542V22.976L55.1689 22.9792L55.1835 22.9839L55.2496 22.9918C55.2936 22.997 55.4134 23.0049 55.6091 23.0154C55.8048 23.0259 56.0127 23.0259 56.2328 23.0154C56.4529 23.0049 56.678 22.9813 56.9079 22.9445C57.1378 22.9077 57.4093 22.8447 57.7224 22.7554C58.0355 22.6661 58.3231 22.56 58.5853 22.4371C58.8465 22.3131 59.0324 22.2207 59.143 22.1598C59.2525 22.0999 59.4198 21.9885 59.6448 21.8257L59.9824 21.5814L59.9853 21.5767L59.9897 21.5735L59.9941 21.5704L59.9971 21.5657L60 21.5609L60.0044 21.5578L60.0088 21.5546L60.0117 21.5499L60.0264 21.5452L60.0411 21.542L60.044 21.5263L60.0484 21.5105L60.0528 21.5074L60.0558 21.5026L59.9383 21.4948C59.8601 21.4895 59.7843 21.4842 59.7109 21.479C59.6375 21.4738 59.5226 21.4501 59.366 21.4081C59.2095 21.3661 59.0407 21.303 58.8597 21.219C58.6787 21.1349 58.5026 21.0351 58.3314 20.9196C58.1602 20.804 58.0364 20.7079 57.9601 20.6312C57.8848 20.5556 57.7869 20.4484 57.6666 20.3097C57.5472 20.17 57.4435 20.0266 57.3555 19.8795C57.2674 19.7325 57.1833 19.5628 57.1031 19.3706L56.9813 19.0838L56.9739 19.0601L56.9666 19.0365L56.9622 19.0207L56.9592 19.005L56.9813 19.0081L57.0033 19.0128L57.1647 19.0365C57.2723 19.0522 57.4411 19.0575 57.671 19.0522C57.9009 19.047 58.0599 19.0365 58.148 19.0207C58.236 19.005 58.2898 18.9945 58.3094 18.9892L58.3387 18.9813L58.3754 18.9734L58.4121 18.9656L58.415 18.9608L58.4194 18.9577L58.4239 18.9545L58.4268 18.9498L58.3974 18.9419L58.3681 18.9341L58.3387 18.9262L58.3094 18.9183L58.28 18.9104C58.2605 18.9052 58.2262 18.8947 58.1773 18.8789C58.1284 18.8631 57.9963 18.8054 57.7811 18.7056C57.5658 18.6058 57.3946 18.5086 57.2674 18.414C57.1399 18.3192 57.0183 18.2155 56.9035 18.1036C56.789 17.9901 56.6633 17.8441 56.5263 17.6655C56.3894 17.4869 56.2671 17.2794 56.1594 17.0431C56.0518 16.8067 55.9711 16.5808 55.9173 16.3655C55.8637 16.1514 55.8283 15.9325 55.8116 15.7115L55.7852 15.3806L55.7999 15.3837L55.8146 15.3885L55.8292 15.3963L55.8439 15.4042L55.8586 15.4121L55.8733 15.42L56.1007 15.5303C56.2524 15.6038 56.4407 15.6669 56.6657 15.7194C56.8908 15.7719 57.0253 15.8008 57.0693 15.8061L57.1354 15.8139H57.2674L57.2645 15.8092L57.2601 15.8061L57.2557 15.8029L57.2528 15.7982L57.2498 15.7934L57.2454 15.7903L57.241 15.7871L57.2381 15.7824L57.2234 15.7745L57.2087 15.7667L57.2058 15.7619L57.2014 15.7588L57.197 15.7556L57.1941 15.7509L57.1794 15.743L57.1647 15.7351L57.1618 15.7304C57.1588 15.7283 57.1168 15.6947 57.0356 15.6296C56.9553 15.5634 56.8712 15.4778 56.7831 15.3727C56.6951 15.2676 56.607 15.1573 56.519 15.0418C56.4308 14.926 56.3522 14.802 56.2842 14.6715C56.2157 14.5402 56.1433 14.3731 56.067 14.1704C55.9917 13.9687 55.9344 13.7654 55.8953 13.5605C55.8562 13.3557 55.8341 13.1534 55.8292 12.9538C55.8244 12.7542 55.8292 12.5835 55.8439 12.4417C55.8586 12.2999 55.8879 12.1396 55.932 11.9611C55.976 11.7825 56.0396 11.5934 56.1228 11.3938L56.2475 11.0944L56.2548 11.0707L56.2622 11.0471L56.2666 11.0439L56.2695 11.0392L56.2724 11.0345L56.2768 11.0313L56.2813 11.0345L56.2842 11.0392L56.2871 11.0439L56.2915 11.0471L56.2959 11.0502L56.2989 11.055L56.3018 11.0597L56.3062 11.0628L56.3135 11.0786L56.3209 11.0944L56.3253 11.0975L56.3282 11.1022L56.5263 11.3386C56.6584 11.4962 56.8149 11.6722 56.9959 11.8665C57.1769 12.0609 57.2772 12.1617 57.2968 12.1691C57.3164 12.1775 57.3408 12.2016 57.3702 12.2416C57.3995 12.2804 57.4973 12.3734 57.6637 12.5205C57.83 12.6675 58.0477 12.8383 58.3167 13.0326C58.5858 13.227 58.8842 13.4187 59.2119 13.6078C59.5397 13.7969 59.8919 13.9676 60.2685 14.1199C60.6452 14.2723 60.9094 14.3721 61.061 14.4193C61.2127 14.4666 61.4719 14.527 61.8388 14.6006C62.2057 14.6741 62.4821 14.7214 62.668 14.7424C62.8539 14.7634 62.9811 14.7755 63.0495 14.7786L63.1523 14.7818L63.1493 14.7581L63.1449 14.7345L63.1156 14.5375C63.096 14.4062 63.0862 14.2224 63.0862 13.986C63.0862 13.7496 63.1033 13.5316 63.1376 13.332C63.1718 13.1324 63.2232 12.9302 63.2917 12.7253C63.3602 12.5205 63.4272 12.3561 63.4927 12.2321C63.5593 12.1092 63.6463 11.9689 63.7539 11.8114C63.8616 11.6538 64.001 11.4909 64.1722 11.3229C64.3434 11.1548 64.5391 11.0051 64.7592 10.8737C64.9793 10.7424 65.1824 10.6426 65.3682 10.5743C65.5541 10.5061 65.7107 10.4614 65.8379 10.4404C65.965 10.4194 66.0286 10.4073 66.0286 10.4042Z" fill="#17224D"/>
<rect id="Social Media Icon_3" x="94.0333" width="32.55" height="35" rx="8" fill="#E7E6F2"/>
<path id="Rectangle 646" d="M102.171 17.5002C102.171 14.005 102.171 12.2573 102.945 10.9986C103.291 10.4365 103.739 9.95507 104.262 9.58314C105.432 8.75024 107.058 8.75024 110.308 8.75024C113.559 8.75024 115.184 8.75024 116.355 9.58314C116.878 9.95507 117.325 10.4365 117.671 10.9986C118.446 12.2573 118.446 14.005 118.446 17.5002C118.446 20.9955 118.446 22.7432 117.671 24.0019C117.325 24.564 116.878 25.0454 116.355 25.4173C115.184 26.2502 113.559 26.2502 110.308 26.2502C107.058 26.2502 105.432 26.2502 104.262 25.4173C103.739 25.0454 103.291 24.564 102.945 24.0019C102.171 22.7432 102.171 20.9955 102.171 17.5002Z" fill="#17224D"/>
<path id="Ellipse 140 (Stroke)" fill-rule="evenodd" clip-rule="evenodd" d="M114.521 17.5002C114.521 20.002 112.635 22.0302 110.309 22.0302C107.982 22.0302 106.096 20.002 106.096 17.5002C106.096 14.9984 107.982 12.9702 110.309 12.9702C112.635 12.9702 114.521 14.9984 114.521 17.5002ZM110.309 20.4976C111.848 20.4976 113.096 19.1556 113.096 17.5002C113.096 15.8448 111.848 14.5028 110.309 14.5028C108.769 14.5028 107.521 15.8448 107.521 17.5002C107.521 19.1556 108.769 20.4976 110.309 20.4976Z" fill="white"/>
<ellipse id="Ellipse 141" cx="114.687" cy="12.7421" rx="0.989901" ry="1.06441" fill="white"/>
<rect id="Social Media Icon_4" x="141.05" width="32.55" height="35" rx="8" fill="#E7E6F2"/>
<path id="LinkedIn" d="M149.188 11.1029C149.188 10.5417 149.371 10.0788 149.737 9.71401C150.104 9.34924 150.58 9.16687 151.167 9.16687C151.743 9.16687 152.209 9.34643 152.565 9.70559C152.932 10.076 153.115 10.5586 153.115 11.1534C153.115 11.6921 152.937 12.141 152.581 12.5002C152.214 12.8706 151.732 13.0558 151.135 13.0558H151.12C150.544 13.0558 150.078 12.8706 149.722 12.5002C149.366 12.1298 149.188 11.6641 149.188 11.1029ZM149.392 25.8335V14.5877H152.879V25.8335H149.392ZM154.811 25.8335H158.299V19.5541C158.299 19.1612 158.341 18.8582 158.425 18.645C158.571 18.2634 158.794 17.9407 159.092 17.677C159.391 17.4132 159.765 17.2813 160.216 17.2813C161.389 17.2813 161.975 18.1287 161.975 19.8234V25.8335H165.462V19.3857C165.462 17.7247 165.096 16.4648 164.363 15.6063C163.63 14.7477 162.661 14.3184 161.457 14.3184C160.106 14.3184 159.053 14.9413 158.299 16.1871V16.2207H158.283L158.299 16.1871V14.5877H154.811C154.832 14.9469 154.843 16.0636 154.843 17.9379C154.843 19.8122 154.832 22.4441 154.811 25.8335Z" fill="#17224D"/>
<rect id="Social Media Icon_5" x="188.066" width="32.55" height="35" rx="8" fill="#E7E6F2"/>
<path id="YouTube" d="M204.702 23.983L201.363 23.9125C200.282 23.8879 199.198 23.9369 198.138 23.6824C196.526 23.302 196.412 21.4371 196.292 19.8727C196.128 17.6735 196.191 15.4343 196.502 13.2534C196.678 12.0297 197.368 11.2995 198.436 11.2201C202.041 10.9317 205.669 10.9659 209.266 11.1004C209.646 11.1127 210.028 11.1802 210.403 11.2569C212.252 11.6311 212.297 13.7445 212.416 15.5236C212.536 17.321 212.486 19.1277 212.257 20.9129C212.074 22.391 211.723 23.6305 210.243 23.7501C208.389 23.9066 206.578 24.0326 204.718 23.9925C204.718 23.983 204.708 23.983 204.702 23.983ZM202.739 20.2409C204.136 19.3145 205.507 18.4035 206.896 17.4833C205.496 16.5569 204.128 15.646 202.739 14.7258V20.2409Z" fill="#17224D"/>
</g>
</svg>
