<svg width="18" height="16" viewBox="0 0 18 16" fill="none" xmlns="http://www.w3.org/2000/svg">
<path id="Vector" d="M8.67031 16L7.79698 15.1924C6.29173 13.7808 5.04919 12.5621 4.06936 11.5362C3.08952 10.5102 2.3085 9.59345 1.72628 8.78581C1.14406 7.97817 0.735794 7.24693 0.501486 6.59209C0.267178 5.93724 0.150024 5.27513 0.150024 4.60573C0.150024 3.29604 0.579589 2.201 1.43872 1.3206C2.29785 0.4402 3.35933 0 4.62318 0C5.4326 0 6.18168 0.196453 6.8704 0.589359C7.55912 0.982265 8.15909 1.5498 8.67031 2.29195C9.26673 1.50614 9.89865 0.927694 10.5661 0.556616C11.2335 0.185539 11.9506 0 12.7174 0C13.9813 0 15.0428 0.4402 15.9019 1.3206C16.761 2.201 17.1906 3.29604 17.1906 4.60573C17.1906 5.27513 17.0734 5.93724 16.8391 6.59209C16.6048 7.24693 16.1966 7.97817 15.6143 8.78581C15.0321 9.59345 14.2511 10.5102 13.2713 11.5362C12.2914 12.5621 11.0489 13.7808 9.54364 15.1924L8.67031 16Z" fill="#007FFF"/>
</svg>
