<svg width="39" height="39" viewBox="0 0 39 39" fill="none" xmlns="http://www.w3.org/2000/svg">
<g id="Group 1">
<circle id="Ellipse 1" cx="19.5" cy="19.5" r="19.5" fill="#007FFF"/>
<path id="Vector" d="M25.7916 26.9046L20.815 21.8255C20.4365 22.1603 19.995 22.421 19.4904 22.6077C18.9858 22.7943 18.4497 22.8877 17.882 22.8877C16.5196 22.8877 15.3653 22.4049 14.4192 21.4393C13.4731 20.4737 13 19.3086 13 17.9438C13 16.5791 13.4731 15.414 14.4192 14.4484C15.3653 13.4828 16.5133 13 17.8631 13C19.2002 13 20.3387 13.4828 21.2786 14.4484C22.2184 15.414 22.6883 16.5791 22.6883 17.9438C22.6883 18.4975 22.6 19.0317 22.4234 19.5467C22.2468 20.0617 21.9818 20.5445 21.6286 20.9951L26.6241 26.0548L25.7916 26.9046ZM17.8631 21.729C18.8849 21.729 19.7553 21.3588 20.4744 20.6185C21.1934 19.8783 21.5529 18.9867 21.5529 17.9438C21.5529 16.901 21.1934 16.0094 20.4744 15.2691C19.7553 14.5289 18.8849 14.1587 17.8631 14.1587C16.8286 14.1587 15.9487 14.5289 15.2234 15.2691C14.498 16.0094 14.1353 16.901 14.1353 17.9438C14.1353 18.9867 14.498 19.8783 15.2234 20.6185C15.9487 21.3588 16.8286 21.729 17.8631 21.729Z" fill="white"/>
</g>
</svg>
